<svg width="360" height="59" viewBox="0 0 360 59" fill="none" xmlns="http://www.w3.org/2000/svg">
<path d="M157.657 25.964V26.768H161.617C161.413 28.664 159.757 30.188 157.225 30.98L157.621 31.76C160.717 30.788 162.673 28.748 162.673 25.964H157.657ZM159.829 32.192H158.845V35.648H166.021V34.844H159.829V32.192ZM165.553 28.4V25.136H164.569V32.996H165.553V29.216H167.149V28.4H165.553ZM174.576 29.936C172.944 30.224 171.564 30.296 169.68 30.296V28.748H173.532V25.76H168.684V26.564H172.56V27.992H168.708V31.1H169.56C171.552 31.1 172.968 31.028 174.672 30.74L174.576 29.936ZM169.596 33.032H175.608V35.876H176.592V32.24H169.596V33.032ZM178.188 27.656V26.84H176.592V25.136H175.608V31.676H176.592V29.912H178.188V29.096H176.592V27.656H178.188ZM182.759 32.672C181.763 32.672 181.043 31.976 181.043 31.004C181.043 30.044 181.763 29.348 182.759 29.348C183.755 29.348 184.487 30.044 184.487 31.004C184.487 31.976 183.755 32.672 182.759 32.672ZM182.759 28.532C181.223 28.532 180.107 29.552 180.107 31.004C180.107 32.48 181.223 33.488 182.759 33.488C184.319 33.488 185.423 32.48 185.423 31.004C185.423 29.552 184.319 28.532 182.759 28.532ZM183.239 25.244H182.255V26.864H179.519V27.668H185.975V26.864H183.239V25.244ZM187.103 25.124V35.888H188.087V25.124H187.103Z" fill="#8B8B8B"/>
<path d="M205.429 33L199.446 27L193.463 33" stroke="#8B8B8B"/>
</svg>
