<svg width="24" height="24" viewBox="0 0 24 24" fill="none" xmlns="http://www.w3.org/2000/svg">
<path d="M12 5.8125L11.3955 6.05133H12.6045L12 5.8125ZM12 21L11.5375 21.4568L12.4625 21.4568L12 21ZM4.77774 13.6875L4.31528 14.1443L4.31528 14.1443L4.77774 13.6875ZM12.6045 6.05133C12.9087 5.28155 14.1217 3.65 16.4445 3.65V2.35C13.4339 2.35 11.8321 4.46845 11.3955 5.57367L12.6045 6.05133ZM16.4445 3.65C19.4112 3.65 21.35 6.16385 21.35 8.0625H22.65C22.65 5.46115 20.1444 2.35 16.4445 2.35V3.65ZM21.35 8.0625C21.35 9.03393 20.9871 10.0464 20.4617 10.9774C19.9392 11.9032 19.2822 12.7017 18.7597 13.2307L19.6847 14.1443C20.2733 13.5483 21.0052 12.6593 21.5938 11.6164C22.1795 10.5786 22.65 9.34107 22.65 8.0625H21.35ZM18.7597 13.2307C18.3153 13.6807 17.019 14.9932 15.5792 16.4511C14.1394 17.9089 12.556 19.512 11.5375 20.5432L12.4625 21.4568C13.481 20.4255 15.0643 18.8224 16.5041 17.3646C17.9439 15.9068 19.2402 14.5943 19.6847 14.1443L18.7597 13.2307ZM12.6045 5.57367C12.1679 4.46844 10.5661 2.35 7.55555 2.35V3.65C9.87835 3.65 11.0914 5.28156 11.3955 6.05133L12.6045 5.57367ZM7.55555 2.35C3.85564 2.35 1.35 5.46115 1.35 8.0625H2.65C2.65 6.16385 4.58879 3.65 7.55555 3.65V2.35ZM1.35 8.0625C1.35 9.34106 1.82047 10.5786 2.40613 11.6163C2.99472 12.6593 3.72665 13.5483 4.31528 14.1443L5.24021 13.2307C4.71773 12.7017 4.06078 11.9032 3.53828 10.9774C3.01284 10.0464 2.65 9.03394 2.65 8.0625H1.35ZM4.31528 14.1443L11.5375 21.4568L12.4624 20.5432L5.24021 13.2307L4.31528 14.1443Z" fill="#8B8B8B"/>
</svg>
