<svg width="24" height="24" viewBox="0 0 24 24" fill="none" xmlns="http://www.w3.org/2000/svg">
<path fill-rule="evenodd" clip-rule="evenodd" d="M3.7 11.2324C3.7 7.07235 7.07235 3.7 11.2324 3.7C15.3924 3.7 18.7647 7.07235 18.7647 11.2324C18.7647 13.3686 17.8765 15.296 16.447 16.6678C15.0928 17.9674 13.2566 18.7647 11.2324 18.7647C7.07235 18.7647 3.7 15.3924 3.7 11.2324ZM11.2324 2C6.13346 2 2 6.13346 2 11.2324C2 16.3312 6.13346 20.4647 11.2324 20.4647C13.1888 20.4647 15.0041 19.8554 16.4974 18.8171L20.1313 22.451L21.3334 21.249L17.8027 17.7183C19.4477 16.0519 20.4647 13.7602 20.4647 11.2324C20.4647 6.13346 16.3312 2 11.2324 2Z" fill="black"/>
</svg>
