<svg width="24" height="24" viewBox="0 0 24 24" fill="none" xmlns="http://www.w3.org/2000/svg">
<path fill-rule="evenodd" clip-rule="evenodd" d="M3.3 11.0324C3.3 6.76189 6.76189 3.3 11.0324 3.3C15.3028 3.3 18.7647 6.76189 18.7647 11.0324C18.7647 13.2253 17.8527 15.2041 16.3855 16.6121C14.9955 17.946 13.1102 18.7647 11.0324 18.7647C6.76189 18.7647 3.3 15.3028 3.3 11.0324ZM11.0324 2C6.04392 2 2 6.04392 2 11.0324C2 16.0208 6.04392 20.0647 11.0324 20.0647C13.0064 20.0647 14.8333 19.4309 16.3194 18.3563L20.0727 22.1096L20.992 21.1904L17.3192 17.5176C19.0116 15.8767 20.0647 13.577 20.0647 11.0324C20.0647 6.04392 16.0208 2 11.0324 2Z" fill="#8B8B8B"/>
</svg>
