<svg width="360" height="59" viewBox="0 0 360 59" fill="none" xmlns="http://www.w3.org/2000/svg">
<rect x="360" y="59" width="360" height="59" transform="rotate(-180 360 59)" fill="url(#paint0_linear_13_23291)"/>
<path d="M165.109 25.076V35.948H166.093V25.076H165.109ZM162.241 29.108V29.924H165.397V29.108H162.241ZM157.597 25.94V33.224H162.577V25.94H161.593V28.76H158.581V25.94H157.597ZM158.581 29.552H161.593V32.396H158.581V29.552ZM168.192 31.088V31.904H177.996V31.088H168.192ZM169.452 34.88V35.696H176.976V34.88H169.452ZM169.452 32.696V35.192H170.448V32.696H169.452ZM169.488 29.312V30.092H176.844V29.312H169.488ZM169.488 25.484V29.612H170.472V26.276H176.796V25.484H169.488ZM170.184 27.392V28.148H176.508V27.392H170.184ZM184.415 26.84V27.656H187.547V26.84H184.415ZM184.415 29V29.804H187.571V29H184.415ZM187.163 25.088V31.508H188.159V25.088H187.163ZM179.735 25.904V30.728H184.691V25.904H179.735ZM183.707 26.708V29.936H180.707V26.708H183.707ZM184.595 31.82C182.351 31.82 180.971 32.576 180.971 33.872C180.971 35.168 182.351 35.912 184.595 35.912C186.827 35.912 188.207 35.168 188.207 33.872C188.207 32.576 186.827 31.82 184.595 31.82ZM184.595 32.612C186.227 32.612 187.223 33.08 187.223 33.872C187.223 34.664 186.227 35.132 184.595 35.132C182.963 35.132 181.967 34.664 181.967 33.872C181.967 33.08 182.963 32.612 184.595 32.612Z" fill="#8B8B8B"/>
<path d="M205.429 27L199.446 33L193.463 27" stroke="#8B8B8B"/>
<defs>
<linearGradient id="paint0_linear_13_23291" x1="540" y1="59" x2="539.242" y2="138.279" gradientUnits="userSpaceOnUse">
<stop offset="0.317708" stop-color="white"/>
<stop offset="0.682292" stop-color="white" stop-opacity="0.694656"/>
<stop offset="1" stop-color="white" stop-opacity="0"/>
</linearGradient>
</defs>
</svg>
