<svg width="90" height="33" viewBox="0 0 90 33" fill="none" xmlns="http://www.w3.org/2000/svg">
<rect width="90" height="33" rx="5" fill="#F3F3F3"/>
<path d="M16.7225 12.654H15.6165V15.048C15.6165 17.218 14.5665 19.458 12.8305 20.466L13.5585 21.334C14.7905 20.578 15.7145 19.164 16.1625 17.526C16.6105 19.024 17.4785 20.312 18.6685 21.012L19.3545 20.102C17.6885 19.178 16.7225 17.05 16.7225 15.006V12.654ZM22.5465 11.478V16.532H20.8805V11.758H19.7885V23.406H20.8805V17.47H22.5465V24.036H23.6385V11.478H22.5465ZM29.7223 12.836V13.76H34.4403C34.2023 16.742 32.5223 19.15 29.1483 20.76L29.7643 21.698C33.9363 19.654 35.6023 16.462 35.6023 12.836H29.7223ZM38.1363 11.478V24.036H39.2843V11.478H38.1363ZM49.6852 12.626H46.5772V11.408H45.4292V12.626H42.3352V13.494H49.6852V12.626ZM44.1132 15.832C44.1132 15.174 44.8692 14.768 46.0032 14.768C47.1652 14.768 47.9072 15.174 47.9072 15.832C47.9072 16.476 47.1652 16.896 46.0032 16.896C44.8692 16.896 44.1132 16.476 44.1132 15.832ZM49.9932 18.198C48.9012 18.352 47.7392 18.436 46.5772 18.492V17.68C48.0612 17.54 48.9992 16.854 48.9992 15.832C48.9992 14.684 47.8092 13.956 46.0032 13.956C44.2252 13.956 43.0352 14.684 43.0352 15.832C43.0352 16.84 43.9592 17.526 45.4292 17.68V18.548C44.1832 18.59 42.9652 18.59 41.9152 18.59L42.0832 19.5C44.3372 19.5 47.3332 19.458 50.0632 19.01L49.9932 18.198ZM43.7212 21.39H50.9872V24.036H52.1352V20.48H43.7212V21.39ZM50.9872 11.506V19.892H52.1352V11.506H50.9872ZM59.1341 12.556H57.9861V14.81C57.9861 17.134 56.5581 19.556 54.7381 20.466L55.4381 21.376C56.8521 20.62 58.0141 19.038 58.5601 17.176C59.1341 18.94 60.2821 20.438 61.7101 21.152L62.3821 20.242C60.5621 19.374 59.1341 17.092 59.1341 14.81V12.556ZM63.9361 11.478V15.734H61.0241V16.672H63.9361V24.05H65.0841V11.478H63.9361ZM73.3799 21.376H74.4019V18.31H77.2439V17.358H74.4019V14.292H73.3799V17.358H70.5379V18.31H73.3799V21.376Z" fill="black"/>
</svg>
