<svg width="14" height="13" viewBox="0 0 14 13" fill="none" xmlns="http://www.w3.org/2000/svg">
<path d="M7.00001 2.71875L6.62708 2.8634H7.37294L7.00001 2.71875ZM6.99999 12L6.71283 12.2785H7.28715L6.99999 12ZM2.66665 7.53125L2.37949 7.80971L2.37949 7.80971L2.66665 7.53125ZM7.37294 2.8634C7.55626 2.39078 8.28264 1.4 9.66667 1.4V0.6C7.85071 0.6 6.8882 1.90089 6.62708 2.5741L7.37294 2.8634ZM9.66667 1.4C11.4342 1.4 12.6 2.92797 12.6 4.09375H13.4C13.4 2.50953 11.8991 0.6 9.66667 0.6V1.4ZM12.6 4.09375C12.6 4.68848 12.3819 5.3077 12.0668 5.87644C11.7533 6.44213 11.3593 6.92986 11.0462 7.25279L11.6205 7.80971C11.974 7.44514 12.4133 6.90162 12.7665 6.26419C13.1181 5.6298 13.4 4.87402 13.4 4.09375H12.6ZM11.0462 7.25279C10.7795 7.52779 10.0017 8.32987 9.13783 9.22076C8.27394 10.1116 7.32394 11.0913 6.71283 11.7215L7.28715 12.2785C7.89826 11.6482 8.84826 10.6686 9.71215 9.77768C10.576 8.88679 11.3538 8.08471 11.6205 7.80971L11.0462 7.25279ZM7.37294 2.5741C7.11181 1.90089 6.14929 0.6 4.33333 0.6V1.4C5.71736 1.4 6.44376 2.39078 6.62708 2.8634L7.37294 2.5741ZM4.33333 0.6C2.1009 0.6 0.6 2.50953 0.6 4.09375H1.4C1.4 2.92797 2.56576 1.4 4.33333 1.4V0.6ZM0.6 4.09375C0.6 4.87402 0.88193 5.6298 1.23345 6.26418C1.58665 6.90161 2.02597 7.44514 2.37949 7.80971L2.95381 7.25279C2.64066 6.92986 2.24665 6.44214 1.9332 5.87644C1.61806 5.3077 1.4 4.68848 1.4 4.09375H0.6ZM2.37949 7.80971L6.71283 12.2785L7.28715 11.7215L2.95381 7.25279L2.37949 7.80971Z" fill="#8B8B8B"/>
</svg>
