<svg width="16" height="16" viewBox="0 0 16 16" fill="none" xmlns="http://www.w3.org/2000/svg">
<path d="M8.00001 3.71875L7.62708 3.8634H8.37294L8.00001 3.71875ZM7.99999 13L7.71283 13.2785H8.28715L7.99999 13ZM3.66665 8.53125L3.37949 8.80971L3.37949 8.80971L3.66665 8.53125ZM8.37294 3.8634C8.55626 3.39078 9.28264 2.4 10.6667 2.4V1.6C8.85071 1.6 7.8882 2.90089 7.62708 3.5741L8.37294 3.8634ZM10.6667 2.4C12.4342 2.4 13.6 3.92797 13.6 5.09375H14.4C14.4 3.50953 12.8991 1.6 10.6667 1.6V2.4ZM13.6 5.09375C13.6 5.68848 13.3819 6.3077 13.0668 6.87644C12.7533 7.44213 12.3593 7.92986 12.0462 8.25279L12.6205 8.80971C12.974 8.44514 13.4133 7.90162 13.7665 7.26419C14.1181 6.6298 14.4 5.87402 14.4 5.09375H13.6ZM12.0462 8.25279C11.7795 8.52779 11.0017 9.32987 10.1378 10.2208C9.27394 11.1116 8.32394 12.0913 7.71283 12.7215L8.28715 13.2785C8.89826 12.6482 9.84826 11.6686 10.7121 10.7777C11.576 9.88679 12.3538 9.08471 12.6205 8.80971L12.0462 8.25279ZM8.37294 3.5741C8.11181 2.90089 7.14929 1.6 5.33333 1.6V2.4C6.71736 2.4 7.44376 3.39078 7.62708 3.8634L8.37294 3.5741ZM5.33333 1.6C3.1009 1.6 1.6 3.50953 1.6 5.09375H2.4C2.4 3.92797 3.56576 2.4 5.33333 2.4V1.6ZM1.6 5.09375C1.6 5.87402 1.88193 6.6298 2.23345 7.26418C2.58665 7.90161 3.02597 8.44514 3.37949 8.80971L3.95381 8.25279C3.64066 7.92986 3.24665 7.44214 2.9332 6.87644C2.61806 6.3077 2.4 5.68848 2.4 5.09375H1.6ZM3.37949 8.80971L7.71283 13.2785L8.28715 12.7215L3.95381 8.25279L3.37949 8.80971Z" fill="#8B8B8B"/>
</svg>
