<svg width="50" height="16" viewBox="0 0 50 16" fill="none" xmlns="http://www.w3.org/2000/svg">
<path d="M2.16 4.96H6.072V4.144H1.176V11.248H2.004C4.044 11.248 5.34 11.176 6.9 10.888L6.78 10.072C5.328 10.348 4.068 10.42 2.16 10.42V4.96ZM8.52 3.124V7.024H5.436V7.84H8.52V13.912H9.504V3.124H8.52ZM13.7991 6.616H19.2951V8.596H13.7991V6.616ZM17.0391 11.704V9.388H20.2551V3.892H19.2951V5.812H13.7991V3.892H12.8271V9.388H16.0431V11.704H11.6751V12.508H21.4311V11.704H17.0391ZM23.3501 4.288V5.08H27.3941C27.1901 7.636 25.7501 9.7 22.8581 11.08L23.3861 11.884C26.9621 10.132 28.3901 7.396 28.3901 4.288H23.3501ZM30.5621 3.124V13.888H31.5461V3.124H30.5621Z" fill="#8B8B8B"/>
<path d="M39.3335 2L45.3335 8L39.3335 14" stroke="#8B8B8B"/>
</svg>
