<svg width="127" height="21" viewBox="0 0 127 21" fill="none" xmlns="http://www.w3.org/2000/svg">
<path d="M12.5066 20.4179H20.042L21.5072 13.4328C22.0305 10.8358 23.6527 9.76119 25.0133 9.76119C26.1645 9.76119 27.1064 10.3881 26.7924 11.8209L25.0133 20.4179H32.5486L34.4848 10.7015C35.2174 6.89552 32.7579 4.65671 29.1472 4.65671C26.5831 4.65671 23.9667 5.68657 21.8735 7.65672C21.0886 5.8209 19.3094 4.65671 16.6406 4.65671C14.0765 4.65671 11.9833 5.55224 9.99484 7.34328C10.0995 6.31343 10.0472 5.64179 10.0472 5.14925H2.82577C2.82577 6.44776 2.61645 7.65672 2.14549 9.98507L0 20.4179H7.53537L9.00059 13.4328C9.52388 10.8358 11.1461 9.76119 12.5066 9.76119C13.6579 9.76119 14.5998 10.3881 14.2858 11.8209L12.5066 20.4179Z" fill="black"/>
<path d="M47.2948 21C52.58 21 57.7606 18 58.7025 13.3433C59.6444 8.68657 55.7721 4.56716 49.3356 4.56716C43.998 4.56716 38.8698 7.56716 37.9279 12.2239C36.986 16.8806 40.8583 21 47.2948 21ZM47.6611 16.6119C46.0912 16.6119 44.7307 15.7164 45.3586 12.6716C45.9865 9.62686 47.5564 8.95522 48.917 8.95522C50.4868 8.95522 51.8474 9.89552 51.2195 12.8955C50.5915 15.9403 48.9693 16.6119 47.6611 16.6119Z" fill="black"/>
<path d="M74.2557 18.2239C74.151 19.2537 74.2033 19.9254 74.2033 20.4179H81.4247C81.4247 19.1194 81.634 17.9104 82.105 15.5821L84.2505 5.14925H76.7151L75.2499 12.1343C74.7266 14.7313 72.9998 15.806 71.6392 15.806C70.488 15.806 69.546 15.1791 69.86 13.7463L71.6392 5.14925H64.1038L62.1677 14.8209C61.3827 18.6269 63.8945 20.8657 67.5052 20.8657C70.0693 20.8657 72.2672 20.0149 74.2557 18.2239Z" fill="black"/>
<path d="M96.1537 7.34328C96.2583 6.31343 96.206 5.64179 96.206 5.14925H88.9846C88.9846 6.44776 88.7753 7.65672 88.3043 9.98507L86.1589 20.4179H93.6942L95.1594 13.4328C95.6827 10.8358 97.4096 9.76119 98.7701 9.76119C99.9214 9.76119 100.863 10.3881 100.549 11.8209L98.7701 20.4179H106.306L108.242 10.7015C108.974 6.89552 106.515 4.65671 102.904 4.65671C100.34 4.65671 98.1422 5.55224 96.1537 7.34328Z" fill="black"/>
<path d="M112.819 20.4179H120.354L122.657 9.13433H126.163L127 5.14925H123.494L124.593 0H117.057L115.959 5.14925H112.453L111.615 9.13433H115.121L112.819 20.4179Z" fill="black"/>
</svg>
