<svg width="115" height="16" viewBox="0 0 115 16" fill="none" xmlns="http://www.w3.org/2000/svg">
<path d="M2.892 11.608H3.768V8.98H6.204V8.164H3.768V5.548H2.892V8.164H0.456V8.98H2.892V11.608ZM13.1918 4.132H12.2438V6.184C12.2438 8.044 11.3438 9.964 9.85584 10.828L10.4798 11.572C11.5358 10.924 12.3278 9.712 12.7118 8.308C13.0958 9.592 13.8398 10.696 14.8598 11.296L15.4478 10.516C14.0198 9.724 13.1918 7.9 13.1918 6.148V4.132ZM18.1838 3.124V7.456H16.7558V3.364H15.8198V13.348H16.7558V8.26H18.1838V13.888H19.1198V3.124H18.1838ZM26.3789 11.752V9.724H29.8229V8.932H23.1989V7.192H29.5709V3.916H22.2029V4.72H28.6109V6.4H22.2269V9.724H25.3829V11.752H21.0029V12.556H30.7829V11.752H26.3789ZM36.914 4.192C38.57 4.192 39.65 4.708 39.65 5.56C39.65 6.4 38.57 6.916 36.914 6.916C35.27 6.916 34.178 6.4 34.178 5.56C34.178 4.708 35.27 4.192 36.914 4.192ZM36.914 7.72C39.194 7.72 40.682 6.892 40.682 5.56C40.682 4.228 39.194 3.4 36.914 3.4C34.634 3.4 33.146 4.228 33.146 5.56C33.146 6.892 34.634 7.72 36.914 7.72ZM34.274 10.504H33.29V13.648H40.73V12.832H34.274V10.504ZM32.042 8.584V9.388H36.506V11.56H37.502V9.388H41.798V8.584H32.042ZM46.4126 4.288V5.08H50.4566C50.2526 7.636 48.8126 9.7 45.9206 11.08L46.4486 11.884C50.0246 10.132 51.4526 7.396 51.4526 4.288H46.4126ZM53.6246 3.124V13.888H54.6086V3.124H53.6246ZM63.5237 4.108H60.8597V3.064H59.8757V4.108H57.2237V4.852H63.5237V4.108ZM58.7477 6.856C58.7477 6.292 59.3957 5.944 60.3677 5.944C61.3637 5.944 61.9997 6.292 61.9997 6.856C61.9997 7.408 61.3637 7.768 60.3677 7.768C59.3957 7.768 58.7477 7.408 58.7477 6.856ZM63.7877 8.884C62.8517 9.016 61.8557 9.088 60.8597 9.136V8.44C62.1317 8.32 62.9357 7.732 62.9357 6.856C62.9357 5.872 61.9157 5.248 60.3677 5.248C58.8437 5.248 57.8237 5.872 57.8237 6.856C57.8237 7.72 58.6157 8.308 59.8757 8.44V9.184C58.8077 9.22 57.7637 9.22 56.8637 9.22L57.0077 10C58.9397 10 61.5077 9.964 63.8477 9.58L63.7877 8.884ZM58.4117 11.62H64.6397V13.888H65.6237V10.84H58.4117V11.62ZM64.6397 3.148V10.336H65.6237V3.148H64.6397ZM71.6228 4.048H70.6388V5.98C70.6388 7.972 69.4148 10.048 67.8548 10.828L68.4548 11.608C69.6668 10.96 70.6628 9.604 71.1308 8.008C71.6228 9.52 72.6068 10.804 73.8307 11.416L74.4068 10.636C72.8468 9.892 71.6228 7.936 71.6228 5.98V4.048ZM75.7388 3.124V6.772H73.2428V7.576H75.7388V13.9H76.7228V3.124H75.7388ZM86.0054 8.284H82.9814V4.876H86.0054V8.284ZM86.9654 4.084H82.0214V9.064H86.9654V4.084ZM84.2174 10.264H83.2334V13.648H90.4094V12.844H84.2174V10.264ZM89.9294 6.4V3.112H88.9454V10.996H89.9294V7.228H91.5254V6.4H89.9294ZM101.196 5.956H94.8965V4.276H101.088V3.484H93.9125V6.748H101.196V5.956ZM94.7765 11.884H101.1V9.352H93.7805V10.12H100.128V11.152H93.8165V13.756H101.424V12.988H94.7765V11.884ZM92.6165 7.612V8.416H102.36V7.612H92.6165ZM104.292 4.288V5.08H108.336C108.132 7.636 106.692 9.7 103.8 11.08L104.328 11.884C107.904 10.132 109.332 7.396 109.332 4.288H104.292ZM111.504 3.124V13.888H112.488V3.124H111.504Z" fill="#8B8B8B"/>
</svg>
