<svg width="28" height="39" viewBox="0 0 28 39" fill="none" xmlns="http://www.w3.org/2000/svg">
<path d="M1.26117 28.74V29.4H4.63117C4.46117 31.53 3.26117 33.25 0.851172 34.4L1.29117 35.07C4.27117 33.61 5.46117 31.33 5.46117 28.74H1.26117ZM7.27117 27.77V36.74H8.09117V27.77H7.27117ZM15.5204 28.59H13.3004V27.72H12.4804V28.59H10.2704V29.21H15.5204V28.59ZM11.5404 30.88C11.5404 30.41 12.0804 30.12 12.8904 30.12C13.7204 30.12 14.2504 30.41 14.2504 30.88C14.2504 31.34 13.7204 31.64 12.8904 31.64C12.0804 31.64 11.5404 31.34 11.5404 30.88ZM15.7404 32.57C14.9604 32.68 14.1304 32.74 13.3004 32.78V32.2C14.3604 32.1 15.0304 31.61 15.0304 30.88C15.0304 30.06 14.1804 29.54 12.8904 29.54C11.6204 29.54 10.7704 30.06 10.7704 30.88C10.7704 31.6 11.4304 32.09 12.4804 32.2V32.82C11.5904 32.85 10.7204 32.85 9.97039 32.85L10.0904 33.5C11.7004 33.5 13.8404 33.47 15.7904 33.15L15.7404 32.57ZM11.2604 34.85H16.4504V36.74H17.2704V34.2H11.2604V34.85ZM16.4504 27.79V33.78H17.2704V27.79H16.4504ZM22.2696 28.54H21.4496V30.15C21.4496 31.81 20.4296 33.54 19.1296 34.19L19.6296 34.84C20.6396 34.3 21.4696 33.17 21.8596 31.84C22.2696 33.1 23.0896 34.17 24.1096 34.68L24.5896 34.03C23.2896 33.41 22.2696 31.78 22.2696 30.15V28.54ZM25.6996 27.77V30.81H23.6196V31.48H25.6996V36.75H26.5196V27.77H25.6996Z" fill="white"/>
<path d="M24 17.9394H6.22222V3H17.8889L24 9.18182V17.9394Z" fill="white" fill-opacity="0.4"/>
<path d="M24 9.18182V17.9394H6.22222V3H17.8889M24 9.18182L17.8889 3M24 9.18182H17.8889V3M4 7.63636V20H20.1111" stroke="white" stroke-width="1.3" stroke-linejoin="bevel"/>
</svg>
