<svg width="24" height="24" viewBox="0 0 24 24" fill="none" xmlns="http://www.w3.org/2000/svg">
<path d="M9.99392 2H3.32725V3.3341H6.99125C4.96651 4.50648 3.41664 6.35202 2.61128 8.54962C1.80593 10.7472 1.79607 13.1578 2.58342 15.3619C3.37077 17.566 4.9055 19.4242 6.92058 20.6131C8.93566 21.802 11.3036 22.2465 13.6123 21.8691C15.921 21.4917 18.0245 20.3164 19.5566 18.5476C21.0888 16.7788 21.9527 14.5286 21.9981 12.1884C22.0435 9.84812 21.2675 7.56603 19.805 5.73913C18.9871 4.71736 17.9834 3.87414 16.8565 3.24772L16.1529 4.38095C17.3171 5.01538 18.3296 5.91369 19.1027 7.01641C20.3238 8.75799 20.8623 10.8879 20.616 13.0009C20.3697 15.114 19.3557 17.0627 17.7669 18.4764C16.1781 19.8901 14.1254 20.6701 11.9993 20.668C9.99694 20.6662 8.05699 19.9709 6.50891 18.7002C4.96082 17.4296 3.90005 15.6619 3.50676 13.6975C3.11347 11.7331 3.41191 9.69299 4.3514 7.92375C5.29088 6.15451 6.81348 4.7652 8.66059 3.99181V8.67049H9.99392V2Z" fill="#B4B4B4"/>
</svg>
