<svg width="48" height="48" viewBox="0 0 48 48" fill="none" xmlns="http://www.w3.org/2000/svg">
<rect width="48" height="48" rx="24" fill="#FBE300"/>
<path d="M20.458 23.828H22.148L21.3492 21.4448L20.458 23.828Z" fill="#3B1E1E"/>
<path d="M24 12C16.2671 12 10 16.8733 10 22.8884C10 26.7016 12.5215 30.0574 16.3375 32.0019L15.0706 36.8873C15.0706 36.8873 14.7034 38.1139 15.7591 37.4324C16.5731 36.9054 20.0096 34.6248 21.5366 33.6071C22.3353 33.7162 23.1585 33.7737 23.9969 33.7737C31.7298 33.7767 38 28.9004 38 22.8884C38 16.8763 31.7298 12 24 12ZM16.5027 26.3442H16.4415C16.0498 26.3442 15.7285 26.0262 15.7285 25.6385V20.8228H14.3209C13.9322 20.8228 13.617 20.5108 13.617 20.1261C13.617 19.7445 13.9322 19.4295 14.3209 19.4295H18.5836C18.9692 19.4295 19.2874 19.7445 19.2874 20.1261C19.2874 20.5078 18.9692 20.8228 18.5836 20.8228H17.2157V25.6385C17.2157 26.0262 16.8944 26.3442 16.5027 26.3442ZM23.7521 26.4441C23.3788 26.5653 22.9718 26.3654 22.8494 25.9959L22.5005 24.957H19.8903L19.5047 25.9838C19.367 26.3472 18.9539 26.535 18.5867 26.4017C18.2195 26.2654 18.0297 25.8565 18.1644 25.4931L20.2575 19.899C20.3126 19.7566 20.4074 19.6385 20.5268 19.5598C20.5268 19.5598 20.793 19.2993 21.2673 19.2993C21.5856 19.2993 21.8365 19.4174 21.9681 19.4931C22.1211 19.5749 22.2435 19.7142 22.3016 19.8869L24.202 25.5506C24.3274 25.9171 24.1255 26.3199 23.7521 26.4441ZM28.0608 26.3866H25.4597C25.4536 26.3866 25.4505 26.3866 25.4444 26.3866C25.4383 26.3866 25.4352 26.3866 25.4291 26.3866C25.0251 26.3866 24.6946 26.0595 24.6946 25.6597V20.1171C24.6946 19.7173 25.0251 19.3902 25.4291 19.3902C25.833 19.3902 26.1635 19.7173 26.1635 20.1171V24.8722H28.0608C28.4831 24.8722 28.8258 25.2144 28.8258 25.6294C28.8258 26.0443 28.4831 26.3866 28.0608 26.3866ZM34.1106 26.1473L34.1014 26.1534C33.7893 26.3987 33.3333 26.3502 33.0824 26.0413L31.1148 23.6001L30.7475 23.9605V25.6597C30.7475 26.0928 30.3895 26.4472 29.9519 26.4472C29.5143 26.4472 29.1563 26.0928 29.1563 25.6597V20.1171C29.1563 19.6839 29.5143 19.3296 29.9519 19.3296C30.3895 19.3296 30.7475 19.6839 30.7475 20.1171V21.9192L33.0059 19.6839C33.2874 19.4053 33.7495 19.4053 34.031 19.6839L34.0402 19.693C34.3217 19.9717 34.3217 20.429 34.0402 20.7077L32.1552 22.5734L34.2269 25.1418C34.4717 25.4477 34.4227 25.902 34.1106 26.1473Z" fill="#3B1E1E"/>
</svg>
