<svg width="118" height="24" viewBox="0 0 118 24" fill="none" xmlns="http://www.w3.org/2000/svg">
<rect width="118" height="24" rx="5" fill="#F3F3F3"/>
<path d="M35.852 11.188C34.304 10.66 33.248 9.316 33.248 7.864V6.676H32.264V7.78C32.264 9.424 31.22 10.888 29.588 11.476L30.104 12.256C31.364 11.776 32.324 10.792 32.768 9.532C33.248 10.636 34.172 11.524 35.336 11.956L35.852 11.188ZM34.568 16.108C32.972 16.108 32 15.664 32 14.92C32 14.164 32.972 13.72 34.568 13.72C36.152 13.72 37.124 14.164 37.124 14.92C37.124 15.664 36.152 16.108 34.568 16.108ZM34.568 12.952C32.372 12.952 31.016 13.66 31.016 14.92C31.016 16.168 32.372 16.876 34.568 16.876C36.752 16.876 38.108 16.168 38.108 14.92C38.108 13.66 36.752 12.952 34.568 12.952ZM37.988 8.908V6.136H37.004V12.652H37.988V9.724H39.584V8.908H37.988ZM43.8671 7.144H42.9191V9.196C42.9191 11.044 42.0311 12.976 40.5551 13.84L41.1671 14.584C42.2351 13.924 43.0151 12.7 43.3991 11.272C43.7831 12.58 44.5031 13.72 45.5231 14.344L46.0871 13.576C44.6711 12.712 43.8671 10.888 43.8671 9.16V7.144ZM46.6991 9.988H44.9231V10.804H46.6991V16.36H47.6231V6.364H46.6991V9.988ZM48.8831 6.124V16.888H49.8191V6.124H48.8831ZM53.8381 9.616H59.3341V11.596H53.8381V9.616ZM57.0781 14.704V12.388H60.2941V6.892H59.3341V8.812H53.8381V6.892H52.8661V12.388H56.0821V14.704H51.7141V15.508H61.4701V14.704H57.0781ZM63.3892 7.288V8.08H67.4332C67.2292 10.636 65.7892 12.7 62.8972 14.08L63.4252 14.884C67.0012 13.132 68.4292 10.396 68.4292 7.288H63.3892ZM70.6012 6.124V16.888H71.5852V6.124H70.6012Z" fill="black"/>
<path d="M102.333 6L108.333 12L102.333 18" stroke="#8B8B8B"/>
</svg>
